STARTFONT 2.1
COMMENT
COMMENT Converted from OpenType font "dubellay.ttf" by "otf2bdf 3.0".
COMMENT
FONT -FreeType-Du Bellay-Medium-R-Normal--28-200-100-100-P-150-ISO10646-1
SIZE 20 100 100
FONTBOUNDINGBOX 51 42 -5 -11
STARTPROPERTIES 19
FOUNDRY "FreeType"
FAMILY_NAME "Du Bellay"
WEIGHT_NAME "Medium"
SLANT "R"
SETWIDTH_NAME "Normal"
ADD_STYLE_NAME ""
PIXEL_SIZE 28
POINT_SIZE 200
RESOLUTION_X 100
RESOLUTION_Y 100
SPACING "P"
AVERAGE_WIDTH 150
CHARSET_REGISTRY "ISO10646"
CHARSET_ENCODING "1"
FONT_ASCENT 22
FONT_DESCENT 5
COPYRIGHT "Generated by Fontographer 4.0"
_OTF_FONTFILE "dubellay.ttf"
_OTF_PSNAME "DuBellay"
ENDPROPERTIES
CHARS 203
STARTCHAR 0000
ENCODING 0
SWIDTH 0 0
DWIDTH 0 0
BBX 0 0 0 0
BITMAP
ENDCHAR
STARTCHAR 0008
ENCODING 8
SWIDTH 0 0
DWIDTH 0 0
BBX 0 0 0 0
BITMAP
ENDCHAR
STARTCHAR 0009
ENCODING 9
SWIDTH 324 0
DWIDTH 9 0
BBX 0 0 0 0
BITMAP
ENDCHAR
STARTCHAR 000D
ENCODING 13
SWIDTH 324 0
DWIDTH 9 0
BBX 0 0 0 0
BITMAP
ENDCHAR
STARTCHAR 001D
ENCODING 29
SWIDTH 0 0
DWIDTH 0 0
BBX 0 0 0 0
BITMAP
ENDCHAR
STARTCHAR 0020
ENCODING 32
SWIDTH 324 0
DWIDTH 9 0
BBX 0 0 0 0
BITMAP
ENDCHAR
STARTCHAR 0021
ENCODING 33
SWIDTH 396 0
DWIDTH 11 0
BBX 4 20 3 0
BITMAP
F0
F0
F0
F0
F0
F0
F0
F0
F0
F0
F0
E0
60
00
00
E0
F0
F0
F0
70
ENDCHAR
STARTCHAR 0022
ENCODING 34
SWIDTH 360 0
DWIDTH 10 0
BBX 8 6 1 17
BITMAP
E7
E7
E7
67
67
E7
ENDCHAR
STARTCHAR 0023
ENCODING 35
SWIDTH 684 0
DWIDTH 19 0
BBX 17 17 1 1
BITMAP
063000
063800
063800
063800
063800
FFFF80
FFFF80
063000
063000
7E3700
FFFF80
FFFF80
063000
063000
063000
063000
063000
ENDCHAR
STARTCHAR 0024
ENCODING 36
SWIDTH 540 0
DWIDTH 15 0
BBX 10 20 1 0
BITMAP
0600
0600
0780
3FC0
3EC0
7E00
7E00
7E00
3E00
3F00
1F80
07C0
07C0
07C0
07C0
C7C0
F780
FF00
1E00
0200
ENDCHAR
STARTCHAR 0025
ENCODING 37
SWIDTH 684 0
DWIDTH 19 0
BBX 17 20 0 0
BITMAP
180080
3E0380
730700
618F00
618E00
619C00
633800
3F7000
1C6000
00E000
01C000
018800
039F00
073380
0E6180
1C6180
1C6180
387180
703B00
E01C00
ENDCHAR
STARTCHAR 0026
ENCODING 38
SWIDTH 900 0
DWIDTH 25 0
BBX 23 23 1 -1
BITMAP
01F000
07FC00
0FFC00
0FFC00
0F9C00
0F3C00
07F800
07F83C
07F07C
07F07C
1FF0F8
3EF8F0
787FE0
F03FC0
F03F80
F01F00
F01F00
F03F00
F87F80
7FFFFE
3FE7FC
1FC1F8
070000
ENDCHAR
STARTCHAR 0027
ENCODING 39
SWIDTH 252 0
DWIDTH 7 0
BBX 4 7 2 15
BITMAP
60
E0
70
70
F0
E0
C0
ENDCHAR
STARTCHAR 0028
ENCODING 40
SWIDTH 396 0
DWIDTH 11 0
BBX 9 27 1 -5
BITMAP
0380
0780
0700
0E00
1C00
3800
7800
F000
E000
E000
E000
E000
E000
E000
E000
E000
E000
F000
F000
7000
3800
1000
0800
0E00
0F00
0700
0200
ENDCHAR
STARTCHAR 0029
ENCODING 41
SWIDTH 504 0
DWIDTH 14 0
BBX 12 24 1 -3
BITMAP
0380
03C0
03C0
01C0
01E0
00E0
00F0
00F0
00F0
0070
0070
0070
00F0
00E0
00C0
01C0
03C0
01C0
0500
1C00
7E00
FC00
F800
6000
ENDCHAR
STARTCHAR 002A
ENCODING 42
SWIDTH 396 0
DWIDTH 11 0
BBX 8 7 2 16
BITMAP
24
3C
18
FF
18
3C
24
ENDCHAR
STARTCHAR 002B
ENCODING 43
SWIDTH 648 0
DWIDTH 18 0
BBX 15 14 1 2
BITMAP
0380
0380
0380
0380
0380
0380
FFFE
FFFE
0380
0380
0380
0380
0380
0180
ENDCHAR
STARTCHAR 002C
ENCODING 44
SWIDTH 288 0
DWIDTH 8 0
BBX 6 11 1 -6
BITMAP
20
F8
FC
FC
7C
3C
1C
3C
38
78
70
ENDCHAR
STARTCHAR 002D
ENCODING 45
SWIDTH 432 0
DWIDTH 12 0
BBX 10 5 1 6
BITMAP
0F80
7FC0
FF80
FF80
7C00
ENDCHAR
STARTCHAR 002E
ENCODING 46
SWIDTH 288 0
DWIDTH 8 0
BBX 6 5 1 0
BITMAP
78
78
FC
78
78
ENDCHAR
STARTCHAR 002F
ENCODING 47
SWIDTH 612 0
DWIDTH 17 0
BBX 15 25 1 -1
BITMAP
0006
000C
001C
0018
0038
0030
0070
0060
00E0
00C0
01C0
0180
0380
0300
0700
0600
0600
0C00
1C00
1800
3800
3000
7000
6000
E000
ENDCHAR
STARTCHAR 0030
ENCODING 48
SWIDTH 792 0
DWIDTH 22 0
BBX 19 16 2 0
BITMAP
01F000
07FC00
1FFF00
3E3F80
7C0FC0
F803C0
F001E0
F001E0
F001E0
F801E0
F803C0
F803C0
7C0780
7F9F00
3FF800
07E000
ENDCHAR
STARTCHAR 0031
ENCODING 49
SWIDTH 396 0
DWIDTH 11 0
BBX 8 17 2 0
BITMAP
38
FE
FE
7C
38
38
38
38
38
38
38
3C
3C
3E
7F
FE
7C
ENDCHAR
STARTCHAR 0032
ENCODING 50
SWIDTH 612 0
DWIDTH 17 0
BBX 13 17 2 0
BITMAP
03C0
0FF0
3FF8
7FF8
F0F8
E078
C078
0070
00F0
01E0
07C0
0F80
1F00
3C00
7FF0
FFF0
FFE0
ENDCHAR
STARTCHAR 0033
ENCODING 51
SWIDTH 540 0
DWIDTH 15 0
BBX 11 17 2 0
BITMAP
0700
1FC0
3FC0
7FE0
F1E0
01C0
0380
0F00
0F80
07C0
03C0
03E0
03E0
03E0
7FE0
FFC0
1F80
ENDCHAR
STARTCHAR 0034
ENCODING 52
SWIDTH 648 0
DWIDTH 18 0
BBX 17 21 0 -4
BITMAP
007000
00F000
00F000
01F800
01F800
03F000
07F000
0E7000
1E7000
3C7A00
3CFF00
7FFF80
7FFF00
F87800
007800
007800
007800
00F800
00F800
00F800
006000
ENDCHAR
STARTCHAR 0035
ENCODING 53
SWIDTH 504 0
DWIDTH 14 0
BBX 11 17 2 0
BITMAP
0300
3F80
7FC0
7800
F800
F800
FE00
FF80
7FC0
1FE0
07E0
03E0
03E0
83C0
FF80
FF00
7C00
ENDCHAR
STARTCHAR 0036
ENCODING 54
SWIDTH 576 0
DWIDTH 16 0
BBX 12 17 2 0
BITMAP
0180
0380
0780
0F00
1E00
3C00
7800
7800
F7C0
FFE0
FDE0
F0F0
F0E0
F1E0
7FC0
7F80
1F00
ENDCHAR
STARTCHAR 0037
ENCODING 55
SWIDTH 504 0
DWIDTH 14 0
BBX 13 17 1 0
BITMAP
7FF0
FFF8
FFF8
FFF0
00F0
00E0
01C0
03C0
0380
0700
0F00
1E00
1C00
3C00
7800
F000
6000
ENDCHAR
STARTCHAR 0038
ENCODING 56
SWIDTH 576 0
DWIDTH 16 0
BBX 13 18 1 -1
BITMAP
0FC0
1FF0
1FF0
3FF8
3C78
3C78
3E70
1FF0
1FF0
1FF0
3CF0
78F8
7078
F078
F8F8
7CF0
3DC0
1C00
ENDCHAR
STARTCHAR 0039
ENCODING 57
SWIDTH 612 0
DWIDTH 17 0
BBX 13 20 2 -3
BITMAP
0FC0
1FF0
3FF0
7FF8
78F8
F078
F078
F078
78F8
7FF8
1FF8
00F8
00F0
01E0
03C0
0780
0780
0E00
1C00
0800
ENDCHAR
STARTCHAR 003A
ENCODING 58
SWIDTH 288 0
DWIDTH 8 0
BBX 6 14 1 0
BITMAP
78
F8
F8
F8
70
00
00
00
00
78
78
FC
78
78
ENDCHAR
STARTCHAR 003B
ENCODING 59
SWIDTH 288 0
DWIDTH 8 0
BBX 7 18 1 -4
BITMAP
78
FC
FC
7C
38
00
00
00
00
F8
FC
FC
7C
3E
3C
3C
38
38
ENDCHAR
STARTCHAR 003C
ENCODING 60
SWIDTH 504 0
DWIDTH 14 0
BBX 13 12 1 4
BITMAP
0020
00F8
03F0
0FC0
1F80
7E00
FC00
3F00
1F80
07E0
01F0
00F0
ENDCHAR
STARTCHAR 003D
ENCODING 61
SWIDTH 468 0
DWIDTH 13 0
BBX 11 9 1 2
BITMAP
3FC0
7FC0
FF00
6000
0080
1FE0
FFE0
FFE0
7800
ENDCHAR
STARTCHAR 003E
ENCODING 62
SWIDTH 540 0
DWIDTH 15 0
BBX 13 12 1 4
BITMAP
2000
7800
FE00
1F80
0FE0
03F0
01F8
07E0
0FC0
3F00
7C00
F800
ENDCHAR
STARTCHAR 003F
ENCODING 63
SWIDTH 360 0
DWIDTH 10 0
BBX 9 21 1 0
BITMAP
4000
F800
FE00
6700
0700
0380
0380
0780
3F80
7F00
7E00
7000
7000
3000
0000
0000
7000
7800
F800
7800
7000
ENDCHAR
STARTCHAR 0040
ENCODING 64
SWIDTH 792 0
DWIDTH 22 0
BBX 16 15 1 0
BITMAP
03E0
1FF0
3F7E
781E
7066
E3C6
E7C7
ECC7
ECC7
EFE7
E6EE
703E
3C1C
1FE0
07E0
ENDCHAR
STARTCHAR 0041
ENCODING 65
SWIDTH 792 0
DWIDTH 22 0
BBX 20 22 1 0
BITMAP
003800
003C00
007E00
007E00
00FE00
00FE00
01FE00
01CE00
03CF00
038F00
03CF00
03FF00
07FF80
07FF80
0F0780
0E03C0
1E03C0
1C03C0
3C03E0
7E07F0
FF0FF0
F007E0
ENDCHAR
STARTCHAR 0042
ENCODING 66
SWIDTH 720 0
DWIDTH 20 0
BBX 18 22 1 0
BITMAP
7FF000
7FFC00
7C3F00
7C0F00
7C0780
3C0780
3C0F80
3C0F00
3E1F00
3FFF00
3FFE00
7FFE00
7E1F80
7C0F80
7C07C0
3C0780
3C0780
3C0780
7C0F80
7C3F80
FFFF00
FFFC00
ENDCHAR
STARTCHAR 0043
ENCODING 67
SWIDTH 792 0
DWIDTH 22 0
BBX 20 22 1 0
BITMAP
007F80
07FFC0
1FC3E0
3F00E0
7E0020
7C0000
FC0000
F80000
F80000
F80000
F80000
F80000
FC0000
7C0000
7C0000
3C0000
3E0030
1E0070
0F00F0
07C3E0
03FFC0
01FF00
ENDCHAR
STARTCHAR 0044
ENCODING 68
SWIDTH 864 0
DWIDTH 24 0
BBX 23 22 0 0
BITMAP
7FFE00
7FFF80
7FFFE0
3FFFF0
1F83FC
0F80FC
0F007C
0F003E
0F003E
0F001E
0F001E
0F001E
0F001E
0F003E
0F003E
0F007C
0F8078
0F80F8
1F81F0
7FFFE0
FFFF80
7FF000
ENDCHAR
STARTCHAR 0045
ENCODING 69
SWIDTH 684 0
DWIDTH 19 0
BBX 17 22 1 0
BITMAP
7FFE00
FFFF00
7FFF00
3F0F00
3E0300
3F0000
3F0000
1F0000
1E0000
1FFE00
1FFF00
1FFE00
1E1E00
1E0600
1E0000
3E0000
3E0000
3E0000
3E0100
7E0780
FFFF80
FFFF00
ENDCHAR
STARTCHAR 0046
ENCODING 70
SWIDTH 648 0
DWIDTH 18 0
BBX 15 22 1 0
BITMAP
0FFE
FFFE
7F1E
3E02
3E00
3E00
3E00
3E00
3E00
3F1C
1FFE
1FFE
1E06
1E00
1E00
1E00
1E00
1E00
3F00
3F80
7FC0
3780
ENDCHAR
STARTCHAR 0047
ENCODING 71
SWIDTH 864 0
DWIDTH 24 0
BBX 22 22 1 0
BITMAP
007F00
01FFE0
07E1E0
0F80E0
3F0070
3E0070
7C0030
780000
F80000
F80000
F80000
F803FC
F801F8
F800F8
7C0070
7C0078
7E0078
3E00F8
1F00F0
0FFFE0
03FFC0
003F00
ENDCHAR
STARTCHAR 0048
ENCODING 72
SWIDTH 864 0
DWIDTH 24 0
BBX 21 22 1 0
BITMAP
0000F8
FF03F8
7F01F8
7E01F0
3C00F0
3C00F0
3C00F0
3C00F0
7C00F0
7E01F0
7FFFF0
3FFFF0
3F83F0
3C00F0
3C00F0
3C00F0
3C00F0
3C00F0
3C01F0
3E01F8
7F03F8
3F03F8
ENDCHAR
STARTCHAR 0049
ENCODING 73
SWIDTH 360 0
DWIDTH 10 0
BBX 6 22 2 0
BITMAP
F8
FC
FC
7C
7C
7C
7C
7C
7C
7C
7C
78
7C
7C
7C
78
78
7C
7C
FC
FC
FC
ENDCHAR
STARTCHAR 004A
ENCODING 74
SWIDTH 576 0
DWIDTH 16 0
BBX 16 22 1 0
BITMAP
01FE
01FF
01FE
00FE
007C
007C
003C
003C
003C
003C
003C
003C
003C
0038
0078
0070
0070
00E0
40E0
F1C0
FF80
3E00
ENDCHAR
STARTCHAR 004B
ENCODING 75
SWIDTH 756 0
DWIDTH 21 0
BBX 19 22 1 0
BITMAP
7C3F00
FE3FC0
7E3FC0
3E3E00
3E1C00
3E3C00
3E7800
1EF000
1EE000
1FC000
1FC000
1FE000
1FE000
3FF000
3FF800
3EFC00
3EFC00
3E7E00
3E7F00
3E3FC0
7F1FE0
7E03E0
ENDCHAR
STARTCHAR 004C
ENCODING 76
SWIDTH 612 0
DWIDTH 17 0
BBX 16 22 1 0
BITMAP
7F00
FF80
FF00
7F00
7E00
3E00
3E00
3E00
3E00
3E00
3E00
3E00
3C00
3C00
3C00
3C00
3C00
3C00
3E02
7F06
7FFF
7FFE
ENDCHAR
STARTCHAR 004D
ENCODING 77
SWIDTH 936 0
DWIDTH 26 0
BBX 24 22 1 0
BITMAP
7C003C
7E007C
7F007E
3F007C
1F00FC
1F00FC
1F80FC
1FC1FC
1FC1FC
1FC3FC
1BE3BC
19E33C
18F73C
38FE3C
38FE3C
187C3C
387C3C
38783C
78783C
FC387E
FC10FF
FC007F
ENDCHAR
STARTCHAR 004E
ENCODING 78
SWIDTH 900 0
DWIDTH 25 0
BBX 24 22 1 0
BITMAP
7C001E
FE007F
7F007E
3F803C
1F8038
1FC038
1FE038
1FF038
1FF038
19F838
18FC38
187E38
183F38
181FB8
1C0FF8
1C0FF8
1C07F8
1C03F8
3C00F8
3C00F8
7E007C
7E0030
ENDCHAR
STARTCHAR 004F
ENCODING 79
SWIDTH 936 0
DWIDTH 26 0
BBX 24 22 1 0
BITMAP
001C00
007FC0
01FFE0
0780F0
0F0078
1F003C
3F003E
3E003E
7C001E
7C001F
7C001F
FC001E
7C001E
7C001E
7E001E
7E003E
3F003C
3F8078
1FE070
03FFE0
01FF80
007E00
ENDCHAR
STARTCHAR 0050
ENCODING 80
SWIDTH 648 0
DWIDTH 18 0
BBX 15 22 1 0
BITMAP
FFE0
FFF8
FFFC
7FFC
3E7E
3C7E
1C3E
1C3E
1C1E
1C3E
3E7E
3FFE
3FFC
3FF0
3E00
3C00
1C00
1C00
3E00
7F00
7F80
3F00
ENDCHAR
STARTCHAR 0051
ENCODING 81
SWIDTH 1008 0
DWIDTH 28 0
BBX 45 31 1 -9
BITMAP
000F80000000
01FFF0000000
07FFF8000000
0F80FC000000
1F007E000000
3E003F000000
7C001F000000
7C001F000000
78000F800000
F8000F800000
F8000F800000
F8000F800000
F8000F800000
F8000F800000
FC000F800000
7C001F000000
7F001F000000
3FC03E000000
1FE03C000000
0FF0F8000000
01FFF8000000
00FFF0000000
007FF80000F0
001FFE0001F8
0003FFC007F8
00007FF00FF8
00001FFE0FF0
000007FFFFE0
000001FFFFE0
0000001FFFC0
00000003FE00
ENDCHAR
STARTCHAR 0052
ENCODING 82
SWIDTH 792 0
DWIDTH 22 0
BBX 21 22 1 0
BITMAP
7FE000
7FF800
3FFE00
3F1F00
1E1F80
1E0F80
1E0F80
1E0F00
1E0F00
1E1E00
1F3C00
1FFC00
1E3C00
1C3E00
1C1F00
1C0F00
1C0780
3E07C0
7E03C0
FF03F0
FF01F8
7E0078
ENDCHAR
STARTCHAR 0053
ENCODING 83
SWIDTH 612 0
DWIDTH 17 0
BBX 14 22 1 0
BITMAP
01F8
0FFC
1F1C
3E04
3C00
3E00
3E00
3F00
3FC0
1FE0
0FE0
03F8
01FC
007C
003C
003C
C03C
E038
F878
FFF8
FFF0
0F80
ENDCHAR
STARTCHAR 0054
ENCODING 84
SWIDTH 864 0
DWIDTH 24 0
BBX 22 22 1 0
BITMAP
7FFFF0
FFFFF8
F0FC3C
E0F018
00F000
00F000
007000
007000
007000
007000
007000
00F000
00F000
00F000
00F000
00F000
00F800
01F800
01F800
0FFC00
0FFE00
07FE00
ENDCHAR
STARTCHAR 0055
ENCODING 85
SWIDTH 864 0
DWIDTH 24 0
BBX 22 22 1 0
BITMAP
7E01F0
FE01FC
7C00F8
7800F8
3800F0
3800F0
3800F0
3800F0
3800F0
7800F0
7800F0
7800F0
7C00F0
7C00F0
3C00F0
3C00F0
3C00F0
1C00E0
1E01C0
0F87C0
07FF80
01FE00
ENDCHAR
STARTCHAR 0056
ENCODING 86
SWIDTH 756 0
DWIDTH 21 0
BBX 21 22 0 0
BITMAP
7F81E0
FFC3F8
7F81F0
3F01F0
1F01E0
0F01C0
0F81C0
0F8380
0FC380
07C300
07C300
03C600
03E600
03FE00
01FE00
01FC00
00FC00
00FC00
00F800
00F800
007800
007000
ENDCHAR
STARTCHAR 0057
ENCODING 87
SWIDTH 1224 0
DWIDTH 34 0
BBX 33 22 0 0
BITMAP
7F03F81F80
FF87F81F80
3F03F81F00
1F01F80F00
1F01F81E00
0F01F81C00
0F01F81C00
0F83F81800
0F83FC3800
07837C3800
07C77C3000
03C73E7000
03CE3E7000
03EE1FE000
01FE1FE000
01FC1FE000
01FC0FC000
00FC0FC000
00F80FC000
00F8078000
0070078000
0060030000
ENDCHAR
STARTCHAR 0058
ENCODING 88
SWIDTH 792 0
DWIDTH 22 0
BBX 20 22 1 0
BITMAP
FE03E0
FF03E0
3E03C0
1E0380
0F0200
0F8700
078E00
078C00
03DC00
03F800
01F000
01F000
03F800
03F800
07FC00
063E00
0E3E00
1C1F00
3C0F00
780F80
7C1FE0
FC1FF0
ENDCHAR
STARTCHAR 0059
ENCODING 89
SWIDTH 720 0
DWIDTH 20 0
BBX 19 22 1 0
BITMAP
FE03E0
FF03E0
3E03C0
1E0380
0F0700
0F0700
078E00
078C00
03D800
03F000
01F000
00F000
00E000
00E000
00E000
00F000
00E000
01E000
01F000
03F800
07F800
03F000
ENDCHAR
STARTCHAR 005A
ENCODING 90
SWIDTH 720 0
DWIDTH 20 0
BBX 18 22 1 0
BITMAP
1FFF00
7FFF80
FFFF80
F88F80
701F00
001E00
003C00
007C00
007800
00F800
01F000
01E000
03C000
07C000
078000
0F0000
1F0000
3E0180
3E0380
7FBF80
FFFFC0
7FFF00
ENDCHAR
STARTCHAR 005B
ENCODING 91
SWIDTH 324 0
DWIDTH 9 0
BBX 8 26 1 -2
BITMAP
7E
FF
E0
E0
E0
E0
E0
E0
E0
E0
E0
E0
E0
E0
E0
E0
E0
E0
E0
E0
E0
E0
E0
F0
FE
FE
ENDCHAR
STARTCHAR 005C
ENCODING 92
SWIDTH 504 0
DWIDTH 14 0
BBX 13 25 1 -1
BITMAP
8000
C000
E000
E000
7000
7000
3000
3800
1800
1C00
0C00
0E00
0600
0700
0300
0380
0180
01C0
00C0
00E0
0060
0060
0070
0038
0038
ENDCHAR
STARTCHAR 005D
ENCODING 93
SWIDTH 288 0
DWIDTH 8 0
BBX 7 26 0 -2
BITMAP
7C
FE
0E
0E
0E
0E
0E
0E
0E
0E
0E
0E
0E
0E
0E
0E
0E
0E
0E
0E
0E
0E
0E
1E
7E
7C
ENDCHAR
STARTCHAR 005E
ENCODING 94
SWIDTH 396 0
DWIDTH 11 0
BBX 9 5 1 17
BITMAP
1C00
3E00
7F00
E780
C380
ENDCHAR
STARTCHAR 005F
ENCODING 95
SWIDTH 864 0
DWIDTH 24 0
BBX 24 2 0 -2
BITMAP
3FFFFF
FFFFFE
ENDCHAR
STARTCHAR 0060
ENCODING 96
SWIDTH 252 0
DWIDTH 7 0
BBX 5 7 1 15
BITMAP
E0
E0
F0
70
38
18
08
ENDCHAR
STARTCHAR 0061
ENCODING 97
SWIDTH 468 0
DWIDTH 13 0
BBX 11 13 1 0
BITMAP
1F00
3F80
7F80
7380
03C0
07C0
1FC0
7FC0
FF80
FF80
FFE0
FFE0
7BC0
ENDCHAR
STARTCHAR 0062
ENCODING 98
SWIDTH 648 0
DWIDTH 18 0
BBX 15 23 2 0
BITMAP
E000
F000
F000
F000
F000
F000
F000
F000
F000
F000
FFE0
F8F8
F078
F03C
F03C
F03E
F03E
F03C
F03C
F838
F8F0
FFE0
7F80
ENDCHAR
STARTCHAR 0063
ENCODING 99
SWIDTH 468 0
DWIDTH 13 0
BBX 11 13 1 0
BITMAP
07C0
1FE0
3FE0
7C00
F000
F000
F000
F000
F000
7800
7FC0
3F80
0F00
ENDCHAR
STARTCHAR 0064
ENCODING 100
SWIDTH 540 0
DWIDTH 15 0
BBX 13 22 1 0
BITMAP
0070
00F8
00F8
0078
0070
0070
0030
0070
0070
1FF0
3FF0
70F0
F070
F070
E070
E070
F070
7070
78F0
7FF8
7FF8
1FF0
ENDCHAR
STARTCHAR 0065
ENCODING 101
SWIDTH 504 0
DWIDTH 14 0
BBX 12 15 1 0
BITMAP
0780
1FC0
3FE0
3FF0
7FF0
7FF0
7FE0
F800
F000
F000
7800
7C40
7FC0
3FC0
1F80
ENDCHAR
STARTCHAR 0066
ENCODING 102
SWIDTH 396 0
DWIDTH 11 0
BBX 14 24 1 0
BITMAP
0070
03F8
07FC
0E78
1C00
3800
3000
3000
3000
7800
FC00
FF80
FF80
7800
7000
3000
3000
3000
7000
7000
7800
7800
7C00
7C00
ENDCHAR
STARTCHAR 0067
ENCODING 103
SWIDTH 612 0
DWIDTH 17 0
BBX 14 23 1 -9
BITMAP
1FF0
7FF8
7FF8
F9F8
F0F0
F0F0
70E0
70E0
39C0
7C00
7800
F800
7820
3FF8
1FFC
3FFC
781C
701C
F01C
E018
7038
7C60
1F80
ENDCHAR
STARTCHAR 0068
ENCODING 104
SWIDTH 576 0
DWIDTH 16 0
BBX 15 23 0 0
BITMAP
1E00
3E00
3E00
3E00
3E00
1E00
1E00
1E00
1E40
1E78
1FF8
1FFC
1FFC
1E3C
1C1C
1C1C
1C1C
3C1C
3E1C
3E3E
7E3E
FE3E
7C1E
ENDCHAR
STARTCHAR 0069
ENCODING 105
SWIDTH 324 0
DWIDTH 9 0
BBX 5 23 2 0
BITMAP
10
38
38
70
00
00
00
00
20
78
F8
F8
F8
78
70
70
70
70
70
78
F8
F8
78
ENDCHAR
STARTCHAR 006A
ENCODING 106
SWIDTH 396 0
DWIDTH 11 0
BBX 14 32 -5 -9
BITMAP
0040
00E0
00F0
00E0
0000
0000
0000
0000
0000
0000
0078
00F0
00F8
00F8
00F0
0070
0070
00F0
0070
0078
0078
0078
007C
0078
0070
0070
0060
00E0
00E0
7FC0
FF00
7C00
ENDCHAR
STARTCHAR 006B
ENCODING 107
SWIDTH 540 0
DWIDTH 15 0
BBX 14 23 1 0
BITMAP
3800
7800
F800
F800
7800
7800
3800
3860
38F0
38F0
31E0
33C0
3780
3F00
3F00
3F00
3780
73C0
79C0
79E0
78F0
7C78
783C
ENDCHAR
STARTCHAR 006C
ENCODING 108
SWIDTH 324 0
DWIDTH 9 0
BBX 6 23 1 0
BITMAP
38
78
F8
F8
78
78
38
38
38
38
38
38
38
38
38
38
38
38
38
38
3C
7C
78
ENDCHAR
STARTCHAR 006D
ENCODING 109
SWIDTH 828 0
DWIDTH 23 0
BBX 21 15 1 0
BITMAP
300000
7FF000
FFFFC0
FFFFE0
FCFCF0
707878
707838
707838
703830
707830
707838
F07878
F8F8F8
F9F8F0
70F0F0
ENDCHAR
STARTCHAR 006E
ENCODING 110
SWIDTH 576 0
DWIDTH 16 0
BBX 13 13 1 0
BITMAP
3FE0
7FF0
FFF0
78F8
7878
7878
7078
7078
7038
7878
7878
FCF8
7870
ENDCHAR
STARTCHAR 006F
ENCODING 111
SWIDTH 576 0
DWIDTH 16 0
BBX 14 15 1 0
BITMAP
0380
0FE0
1FF0
38F8
7878
703C
701C
701C
F01C
F01C
F03C
7838
7C70
3FC0
0F00
ENDCHAR
STARTCHAR 0070
ENCODING 112
SWIDTH 576 0
DWIDTH 16 0
BBX 14 22 1 -9
BITMAP
FFC0
FFF0
FFF8
F8F8
7078
703C
703C
703C
7038
7078
7870
7FE0
7FC0
7C00
7000
7000
7000
7000
7800
F800
FC00
7800
ENDCHAR
STARTCHAR 0071
ENCODING 113
SWIDTH 612 0
DWIDTH 17 0
BBX 14 22 1 -9
BITMAP
07F0
1FF8
3FF8
38F8
7078
6038
F038
7038
F038
7878
7FF8
3FF8
0FF8
0078
0038
0038
0038
0038
0078
00FC
00FC
00F8
ENDCHAR
STARTCHAR 0072
ENCODING 114
SWIDTH 396 0
DWIDTH 11 0
BBX 9 13 1 0
BITMAP
7F80
FF80
FF80
FC00
7800
7800
7800
7800
7800
7800
7800
7800
3800
ENDCHAR
STARTCHAR 0073
ENCODING 115
SWIDTH 432 0
DWIDTH 12 0
BBX 9 13 1 0
BITMAP
1F80
3F80
7900
7C00
7E00
7F00
3F80
1F80
0780
E380
FF00
FE00
7800
ENDCHAR
STARTCHAR 0074
ENCODING 116
SWIDTH 396 0
DWIDTH 11 0
BBX 8 17 2 0
BITMAP
60
E0
F0
F0
FE
FE
FE
F8
F0
F0
F0
F0
F0
FC
7F
7F
3E
ENDCHAR
STARTCHAR 0075
ENCODING 117
SWIDTH 576 0
DWIDTH 16 0
BBX 13 13 1 0
BITMAP
F1E0
FBF0
F9F0
F8F8
78F0
7070
7070
7070
7070
70F8
7CF8
3FF8
1FF0
ENDCHAR
STARTCHAR 0076
ENCODING 118
SWIDTH 468 0
DWIDTH 13 0
BBX 11 15 1 0
BITMAP
60C0
F9E0
F9E0
F9E0
F0E0
F1C0
79C0
7B80
7F00
3F00
1F00
1F00
1E00
1E00
0C00
ENDCHAR
STARTCHAR 0077
ENCODING 119
SWIDTH 828 0
DWIDTH 23 0
BBX 21 13 1 0
BITMAP
FCFC78
FDF8F8
F8F8F0
78F8E0
38F840
3CFCC0
3CDEC0
1FDF00
1F8F00
0F8F00
0F8F00
070600
060600
ENDCHAR
STARTCHAR 0078
ENCODING 120
SWIDTH 504 0
DWIDTH 14 0
BBX 11 13 1 0
BITMAP
70C0
F9E0
7DC0
3FC0
3F80
1F00
0F00
0F00
0F80
1F80
3BC0
7BE0
33C0
ENDCHAR
STARTCHAR 0079
ENCODING 121
SWIDTH 576 0
DWIDTH 16 0
BBX 15 22 1 -9
BITMAP
FC3C
FE7E
FC7E
7C7C
7C78
3E70
1FE0
0FC0
0FC0
0780
0780
0780
0700
0700
0600
0600
0C00
1C00
7C00
F800
7000
7000
ENDCHAR
STARTCHAR 007A
ENCODING 122
SWIDTH 540 0
DWIDTH 15 0
BBX 13 13 1 0
BITMAP
7FE0
FFE0
E3E0
03E0
07C0
0F80
0F00
1E00
1C00
3C38
7C78
FFF0
7FE0
ENDCHAR
STARTCHAR 007B
ENCODING 123
SWIDTH 324 0
DWIDTH 9 0
BBX 8 26 1 -4
BITMAP
7E
FF
E0
E0
E0
E0
E0
E0
E0
E0
E0
E0
E0
E0
E0
E0
E0
E0
E0
E0
E0
E0
E0
F0
FE
FE
ENDCHAR
STARTCHAR 007C
ENCODING 124
SWIDTH 324 0
DWIDTH 9 0
BBX 3 23 3 -1
BITMAP
40
E0
E0
E0
E0
E0
E0
C0
C0
C0
E0
E0
E0
E0
E0
E0
E0
E0
E0
E0
E0
E0
E0
ENDCHAR
STARTCHAR 007D
ENCODING 125
SWIDTH 288 0
DWIDTH 8 0
BBX 7 26 0 -4
BITMAP
7C
FE
1E
0E
0E
0E
0E
0E
0E
0E
0E
0E
0E
0E
0E
0E
0E
0E
0E
0E
0E
0E
0E
1E
7E
7C
ENDCHAR
STARTCHAR 007E
ENCODING 126
SWIDTH 468 0
DWIDTH 13 0
BBX 11 8 1 15
BITMAP
00C0
00E0
3FE0
7FC0
FFC0
FF80
F200
4000
ENDCHAR
STARTCHAR 00A0
ENCODING 160
SWIDTH 324 0
DWIDTH 9 0
BBX 0 0 0 0
BITMAP
ENDCHAR
STARTCHAR 00A1
ENCODING 161
SWIDTH 396 0
DWIDTH 11 0
BBX 5 23 3 -7
BITMAP
30
F8
F8
F8
78
00
00
00
70
70
70
70
70
70
70
78
78
78
78
F8
F8
F8
F8
ENDCHAR
STARTCHAR 00A2
ENCODING 162
SWIDTH 468 0
DWIDTH 13 0
BBX 11 19 1 -2
BITMAP
0300
0300
0300
07C0
1FE0
3FE0
7B00
7300
F300
F300
F380
F380
FB80
7F80
7FC0
3FE0
1F80
0300
0300
ENDCHAR
STARTCHAR 00A5
ENCODING 165
SWIDTH 1008 0
DWIDTH 28 0
BBX 26 26 1 -1
BITMAP
460077C0
7FFF8F40
687FEB40
5F127540
4EF3AFC0
49F3F240
77F2FF40
7BF3DF40
7B33BD40
6EF2A540
58335BC0
7952B3C0
7AF2FB40
57B3CE40
5E73F940
6FD3B740
7952F2C0
FBF2ED40
F7F27FC0
7DB27B40
F8F1E7C0
ED72AB40
DAB15C40
E7F1FF40
FDAFE6C0
FFFFFFC0
ENDCHAR
STARTCHAR 00A8
ENCODING 168
SWIDTH 324 0
DWIDTH 9 0
BBX 10 6 0 17
BITMAP
0180
73C0
F3C0
F3C0
F380
E380
ENDCHAR
STARTCHAR 00A9
ENCODING 169
SWIDTH 576 0
DWIDTH 16 0
BBX 13 22 1 -9
BITMAP
1FF0
39F8
70F8
70F0
70E0
F0F0
79E0
7FC0
7F80
7800
F000
F840
7FF0
3FF8
0FF8
0038
0018
0018
E030
FC70
7FE0
3F00
ENDCHAR
STARTCHAR 00AA
ENCODING 170
SWIDTH 1080 0
DWIDTH 30 0
BBX 27 28 1 -2
BITMAP
FFFFFFE0
C0000060
BFE41FE0
E8DAB960
D4BDDAE0
EAFEEFE0
FAA355E0
F67F9EE0
FD75EF60
D75BF5E0
EF263EE0
FABEE6E0
D59F6DE0
DA5AAEE0
E04EC2E0
F7CF74E0
EAAFBAE0
FF27BF60
EF271FE0
DAD2D6E0
F555CF60
CAEBBBE0
CBEAF360
FD5D6BE0
FEE496E0
C77FF660
BF9FFFE0
C0E00000
ENDCHAR
STARTCHAR 00AC
ENCODING 172
SWIDTH 720 0
DWIDTH 20 0
BBX 18 22 1 0
BITMAP
01F000
07F800
0FFC00
1E1E00
1C0E00
1C0F00
0C0E00
1E0F00
1F9F80
3FFFC0
7FFFC0
7FFF80
F01E00
E00E00
E00E00
E00E00
E00E00
E01E00
F0FF00
7FFF80
3FC780
1F0780
ENDCHAR
STARTCHAR 00B0
ENCODING 176
SWIDTH 288 0
DWIDTH 8 0
BBX 6 6 1 13
BITMAP
30
F8
CC
DC
FC
70
ENDCHAR
STARTCHAR 00B1
ENCODING 177
SWIDTH 1008 0
DWIDTH 28 0
BBX 26 27 1 -2
BITMAP
74800000
7FFFFFC0
7C21E9C0
67FF2FC0
5AFCEF40
6D336BC0
EAEF2740
52F7FAC0
639EDB40
65EEFD40
67DBE640
64FD4240
457BCC40
47AD5B40
455ED540
663EA940
651B4B40
63F5FF40
63EF7E40
515B9F40
48F7C440
445D3840
7A38CF40
7B8717C0
E27FF640
FFFFFFC0
80000180
ENDCHAR
STARTCHAR 00B4
ENCODING 180
SWIDTH 216 0
DWIDTH 6 0
BBX 6 5 0 17
BITMAP
0C
1C
38
60
C0
ENDCHAR
STARTCHAR 00B5
ENCODING 181
SWIDTH 1044 0
DWIDTH 29 0
BBX 26 27 1 -1
BITMAP
00200000
FFFFFFC0
EFC4C5C0
F8C4EFC0
D97F5640
E9BFBF40
D9A58F40
B9FF7F40
B9DF7EC0
A92D8DC0
D9DF7B40
C977DE40
E9EEAAC0
B875F3C0
DD6FADC0
B54B4AC0
E57FBFC0
A9EE7CC0
D98E57C0
F56E76C0
D9FEF740
AD67BF40
EDCDEBC0
D9FF17C0
D0201340
7FFFE040
7FFFFFC0
ENDCHAR
STARTCHAR 00B6
ENCODING 182
SWIDTH 1008 0
DWIDTH 28 0
BBX 26 16 1 0
BITMAP
3F030000
7F0FF000
FE1FF800
FE3FF800
7E3FF800
7E3FFDC0
3E3FFFC0
1FFFFFC0
1FFFFFC0
1FFFFF80
1E3FFF80
1E7FFF00
1E7FFF00
1E3FFE00
3E3FFC00
3C0FE000
ENDCHAR
STARTCHAR 00BA
ENCODING 186
SWIDTH 1044 0
DWIDTH 29 0
BBX 27 26 1 -1
BITMAP
7FFFFFE0
B1FFF4E0
5F7D9FA0
5B8C79E0
B2C0CFE0
7E61FFE0
67E1FDE0
F5D17F20
EFD1FFA0
D4F1F3A0
FFF3FFE0
5BB37FE0
EBF2FFE0
F6F3EDE0
FEB3A7E0
EFF3FFE0
DDD177E0
7EF1D3E0
7FB1DFA0
5761FBE0
F3E0CB60
ECC46EE0
FF8C7B20
DB0DBFA0
E4F7E660
FFFFFFE0
ENDCHAR
STARTCHAR 00BF
ENCODING 191
SWIDTH 360 0
DWIDTH 10 0
BBX 9 21 1 0
BITMAP
0E00
0F00
1F00
0F00
0F00
0000
0000
0000
0600
0600
0600
7F00
FF00
FE00
E000
E000
E000
E000
7F00
1F80
0700
ENDCHAR
STARTCHAR 00C0
ENCODING 192
SWIDTH 792 0
DWIDTH 22 0
BBX 20 30 1 0
BITMAP
006000
007000
007000
007800
003800
001C00
000C00
000000
003800
003C00
007E00
007E00
00FE00
00FE00
01FE00
01CE00
03CF00
038F00
03CF00
03FF00
07FF80
07FF80
0F0780
0E03C0
1E03C0
1C03C0
3C03E0
7E07F0
FF0FF0
F007E0
ENDCHAR
STARTCHAR 00C1
ENCODING 193
SWIDTH 792 0
DWIDTH 22 0
BBX 20 27 1 0
BITMAP
000C00
001E00
003800
007000
006000
003800
003C00
007E00
007E00
00FE00
00FE00
01FE00
01CE00
03CF00
038F00
03CF00
03FF00
07FF80
07FF80
0F0780
0E03C0
1E03C0
1C03C0
3C03E0
7E07F0
FF0FF0
F007E0
ENDCHAR
STARTCHAR 00C2
ENCODING 194
SWIDTH 792 0
DWIDTH 22 0
BBX 20 26 1 0
BITMAP
003C00
007E00
00EF00
01C700
01BB00
003C00
007E00
007E00
00FE00
00FE00
01FE00
01CE00
03CF00
038F00
03CF00
03FF00
07FF80
07FF80
0F0780
0E03C0
1E03C0
1C03C0
3C03E0
7E07F0
FF0FF0
F007E0
ENDCHAR
STARTCHAR 00C3
ENCODING 195
SWIDTH 792 0
DWIDTH 22 0
BBX 20 29 1 0
BITMAP
000200
000700
00DF00
03FF00
03FE00
07FC00
07B800
033800
003C00
007E00
007E00
00FE00
00FE00
01FE00
01CE00
03CF00
038F00
03CF00
03FF00
07FF80
07FF80
0F0780
0E03C0
1E03C0
1C03C0
3C03E0
7E07F0
FF0FF0
F007E0
ENDCHAR
STARTCHAR 00C4
ENCODING 196
SWIDTH 792 0
DWIDTH 22 0
BBX 20 28 1 0
BITMAP
000E00
01CF00
03CF00
03CE00
038E00
030C00
003800
003C00
007E00
007E00
00FE00
00FE00
01FE00
01CE00
03CF00
038F00
03CF00
03FF00
07FF80
07FF80
0F0780
0E03C0
1E03C0
1C03C0
3C03E0
7E07F0
FF0FF0
F007E0
ENDCHAR
STARTCHAR 00C5
ENCODING 197
SWIDTH 792 0
DWIDTH 22 0
BBX 20 27 1 0
BITMAP
003800
007C00
00CE00
00CE00
00FC00
007800
003C00
007E00
007E00
00FE00
00FE00
01FE00
01CE00
03CF00
038F00
03CF00
03FF00
07FF80
07FF80
0F0780
0E03C0
1E03C0
1C03C0
3C03E0
7E07F0
FF0FF0
F007E0
ENDCHAR
STARTCHAR 00C6
ENCODING 198
SWIDTH 1116 0
DWIDTH 31 0
BBX 29 22 1 0
BITMAP
0007FF00
000FFF80
001FFFC0
001FC3C0
003F8080
007FC000
007FC000
00FFC000
00FFC000
00FFFFC0
01FFFFC0
01FFFFC0
03FFC3C0
03FFC0C0
0783C000
0701C000
0E01E000
1E01E000
3E01E038
7E03FBF8
FF07FFF8
F8030FF0
ENDCHAR
STARTCHAR 00C7
ENCODING 199
SWIDTH 756 0
DWIDTH 21 0
BBX 19 28 1 -6
BITMAP
00F080
03FFE0
0FFFE0
1F81E0
3F0000
7E0000
7C0000
FC0000
F80000
F80000
F80000
F80000
FC0000
FC0000
FC0000
7C0000
7E0000
3F0000
1F8000
0FC080
03FFC0
01FC00
00E000
00E000
007000
007000
01F000
00E000
ENDCHAR
STARTCHAR 00C8
ENCODING 200
SWIDTH 684 0
DWIDTH 19 0
BBX 17 30 1 0
BITMAP
01C000
01E000
00E000
00E000
007000
003000
000000
000000
7FFE00
FFFF00
7FFF00
3F0F00
3E0300
3F0000
3F0000
1F0000
1E0000
1FFE00
1FFF00
1FFE00
1E1E00
1E0600
1E0000
3E0000
3E0000
3E0000
3E0100
7E0780
FFFF80
FFFF00
ENDCHAR
STARTCHAR 00C9
ENCODING 201
SWIDTH 684 0
DWIDTH 19 0
BBX 17 30 1 0
BITMAP
007000
00F000
01C000
038000
030000
000000
000000
000000
7FFE00
FFFF00
7FFF00
3F0F00
3E0300
3F0000
3F0000
1F0000
1E0000
1FFE00
1FFF00
1FFE00
1E1E00
1E0600
1E0000
3E0000
3E0000
3E0000
3E0100
7E0780
FFFF80
FFFF00
ENDCHAR
STARTCHAR 00CA
ENCODING 202
SWIDTH 684 0
DWIDTH 19 0
BBX 17 28 1 0
BITMAP
00C000
03F000
07F800
0F3800
0C1C00
000000
7FFE00
FFFF00
7FFF00
3F0F00
3E0300
3F0000
3F0000
1F0000
1E0000
1FFE00
1FFF00
1FFE00
1E1E00
1E0600
1E0000
3E0000
3E0000
3E0000
3E0100
7E0780
FFFF80
FFFF00
ENDCHAR
STARTCHAR 00CB
ENCODING 203
SWIDTH 684 0
DWIDTH 19 0
BBX 17 29 1 0
BITMAP
003C00
073C00
0F3C00
0F3800
0E3800
083000
000000
7FFE00
FFFF00
7FFF00
3F0F00
3E0300
3F0000
3F0000
1F0000
1E0000
1FFE00
1FFF00
1FFE00
1E1E00
1E0600
1E0000
3E0000
3E0000
3E0000
3E0100
7E0780
FFFF80
FFFF00
ENDCHAR
STARTCHAR 00CC
ENCODING 204
SWIDTH 396 0
DWIDTH 11 0
BBX 6 31 2 0
BITMAP
60
70
78
38
1C
0C
04
00
00
F8
FC
FC
7C
7C
7C
7C
7C
7C
7C
7C
78
7C
7C
7C
78
78
7C
7C
FC
FC
FC
ENDCHAR
STARTCHAR 00CD
ENCODING 205
SWIDTH 396 0
DWIDTH 11 0
BBX 6 29 2 0
BITMAP
0C
1C
38
70
E0
00
00
F8
FC
FC
7C
7C
7C
7C
7C
7C
7C
7C
78
7C
7C
7C
78
78
7C
7C
FC
FC
FC
ENDCHAR
STARTCHAR 00CE
ENCODING 206
SWIDTH 396 0
DWIDTH 11 0
BBX 9 28 1 0
BITMAP
1E00
3F00
7780
E380
C180
0000
7C00
7E00
7E00
3E00
3E00
3E00
3E00
3E00
3E00
3E00
3E00
3C00
3E00
3E00
3E00
3C00
3C00
3E00
3E00
7E00
7E00
7E00
ENDCHAR
STARTCHAR 00CF
ENCODING 207
SWIDTH 396 0
DWIDTH 11 0
BBX 10 29 1 0
BITMAP
0380
F3C0
F3C0
F380
E380
8300
0000
7C00
7E00
7E00
3E00
3E00
3E00
3E00
3E00
3E00
3E00
3E00
3C00
3E00
3E00
3E00
3C00
3C00
3E00
3E00
7E00
7E00
7E00
ENDCHAR
STARTCHAR 00D1
ENCODING 209
SWIDTH 936 0
DWIDTH 26 0
BBX 24 30 1 0
BITMAP
000080
0001C0
007FC0
00FFC0
00FF80
01FF00
00E600
00C000
7C001E
FE007F
7F007E
3F803C
1F8038
1FC038
1FE038
1FF038
1FF038
19F838
18FC38
187E38
183F38
181FB8
1C0FF8
1C0FF8
1C07F8
1C03F8
3C00F8
3C00F8
7E007C
7E0030
ENDCHAR
STARTCHAR 00D2
ENCODING 210
SWIDTH 972 0
DWIDTH 27 0
BBX 24 30 1 0
BITMAP
003000
007800
003800
003C00
001C00
000E00
000400
000000
001C00
007FC0
01FFE0
0780F0
0F0078
1F003C
3F003E
3E003E
7C001E
7C001F
7C001F
FC001E
7C001E
7C001E
7E001E
7E003E
3F003C
3F8078
1FE070
03FFE0
01FF80
007E00
ENDCHAR
STARTCHAR 00D3
ENCODING 211
SWIDTH 972 0
DWIDTH 27 0
BBX 24 28 1 0
BITMAP
000E00
001C00
003800
007000
006000
000000
001C00
007FC0
01FFE0
0780F0
0F0078
1F003C
3F003E
3E003E
7C001E
7C001F
7C001F
FC001E
7C001E
7C001E
7E001E
7E003E
3F003C
3F8078
1FE070
03FFE0
01FF80
007E00
ENDCHAR
STARTCHAR 00D4
ENCODING 212
SWIDTH 972 0
DWIDTH 27 0
BBX 24 28 1 0
BITMAP
001E00
003F00
007F80
00E380
00C180
000000
001C00
007FC0
01FFE0
0780F0
0F0078
1F003C
3F003E
3E003E
7C001E
7C001F
7C001F
FC001E
7C001E
7C001E
7E001E
7E003E
3F003C
3F8078
1FE070
03FFE0
01FF80
007E00
ENDCHAR
STARTCHAR 00D5
ENCODING 213
SWIDTH 972 0
DWIDTH 27 0
BBX 24 30 1 0
BITMAP
000180
0003C0
00FFC0
00FF80
01FF00
01FE00
01C000
008000
001C00
007FC0
01FFE0
0780F0
0F0078
1F003C
3F003E
3E003E
7C001E
7C001F
7C001F
FC001E
7C001E
7C001E
7E001E
7E003E
3F003C
3F8078
1FE070
03FFE0
01FF80
007E00
ENDCHAR
STARTCHAR 00D6
ENCODING 214
SWIDTH 972 0
DWIDTH 27 0
BBX 24 29 1 0
BITMAP
000380
00E780
01E780
01E780
01E700
008200
000000
001C00
007FC0
01FFE0
0780F0
0F0078
1F003C
3F003E
3E003E
7C001E
7C001F
7C001F
FC001E
7C001E
7C001E
7E001E
7E003E
3F003C
3F8078
1FE070
03FFE0
01FF80
007E00
ENDCHAR
STARTCHAR 00D9
ENCODING 217
SWIDTH 864 0
DWIDTH 24 0
BBX 22 30 1 0
BITMAP
006000
007000
007000
007800
003800
001C00
000C00
000000
7E01F0
FE01FC
7C00F8
7800F8
3800F0
3800F0
3800F0
3800F0
3800F0
7800F0
7800F0
7800F0
7C00F0
7C00F0
3C00F0
3C00F0
3C00F0
1C00E0
1E01C0
0F87C0
07FF80
01FE00
ENDCHAR
STARTCHAR 00DA
ENCODING 218
SWIDTH 864 0
DWIDTH 24 0
BBX 22 28 1 0
BITMAP
001E00
001C00
007000
006000
004000
000000
7E01F0
FE01FC
7C00F8
7800F8
3800F0
3800F0
3800F0
3800F0
3800F0
7800F0
7800F0
7800F0
7C00F0
7C00F0
3C00F0
3C00F0
3C00F0
1C00E0
1E01C0
0F87C0
07FF80
01FE00
ENDCHAR
STARTCHAR 00DB
ENCODING 219
SWIDTH 864 0
DWIDTH 24 0
BBX 22 29 1 0
BITMAP
000800
003C00
007E00
00EF00
01C780
008000
000000
7E01F0
FE01FC
7C00F8
7800F8
3800F0
3800F0
3800F0
3800F0
3800F0
7800F0
7800F0
7800F0
7C00F0
7C00F0
3C00F0
3C00F0
3C00F0
1C00E0
1E01C0
0F87C0
07FF80
01FE00
ENDCHAR
STARTCHAR 00DC
ENCODING 220
SWIDTH 864 0
DWIDTH 24 0
BBX 22 29 1 0
BITMAP
000780
00E780
01E780
01E700
01C700
018600
000000
7E01F0
FE01FC
7C00F8
7800F8
3800F0
3800F0
3800F0
3800F0
3800F0
7800F0
7800F0
7800F0
7C00F0
7C00F0
3C00F0
3C00F0
3C00F0
1C00E0
1E01C0
0F87C0
07FF80
01FE00
ENDCHAR
STARTCHAR 00DF
ENCODING 223
SWIDTH 648 0
DWIDTH 18 0
BBX 16 23 1 0
BITMAP
00E0
07F8
0FF8
0E00
1C00
3800
3800
3800
7800
7800
701E
F07C
7078
7078
307C
307E
303E
700F
7007
7843
F8E3
FC7E
703E
ENDCHAR
STARTCHAR 00E0
ENCODING 224
SWIDTH 468 0
DWIDTH 13 0
BBX 11 21 1 0
BITMAP
1800
1C00
1E00
0E00
0600
0300
0100
0000
1F00
3F80
7F80
7380
03C0
07C0
1FC0
7FC0
FF80
FF80
FFE0
FFE0
7BC0
ENDCHAR
STARTCHAR 00E1
ENCODING 225
SWIDTH 468 0
DWIDTH 13 0
BBX 11 21 1 0
BITMAP
0180
0380
0700
0E00
1C00
1000
0000
0000
1F00
3F80
7F80
7380
03C0
07C0
1FC0
7FC0
FF80
FF80
FFE0
FFE0
7BC0
ENDCHAR
STARTCHAR 00E2
ENCODING 226
SWIDTH 468 0
DWIDTH 13 0
BBX 11 20 1 0
BITMAP
0600
0F00
3F80
7BC0
71C0
0000
0000
1F00
3F80
7F80
7380
03C0
07C0
1FC0
7FC0
FF80
FF80
FFE0
FFE0
7BC0
ENDCHAR
STARTCHAR 00E3
ENCODING 227
SWIDTH 468 0
DWIDTH 13 0
BBX 11 23 1 0
BITMAP
00C0
00E0
3FE0
7FC0
FFC0
FF80
F200
4000
0000
0000
1F00
3F80
7F80
7380
03C0
07C0
1FC0
7FC0
FF80
FF80
FFE0
FFE0
7BC0
ENDCHAR
STARTCHAR 00E4
ENCODING 228
SWIDTH 468 0
DWIDTH 13 0
BBX 11 21 1 0
BITMAP
0080
31E0
79E0
79E0
79C0
71C0
0100
0000
1F00
3F80
7F80
7380
03C0
07C0
1FC0
7FC0
FF80
FF80
FFE0
FFE0
7BC0
ENDCHAR
STARTCHAR 00E5
ENCODING 229
SWIDTH 468 0
DWIDTH 13 0
BBX 11 19 1 0
BITMAP
0600
1F00
1B80
1B80
1F00
0E00
1F00
3F80
7F80
7380
03C0
07C0
1FC0
7FC0
FF80
FF80
FFE0
FFE0
7BC0
ENDCHAR
STARTCHAR 00E6
ENCODING 230
SWIDTH 684 0
DWIDTH 19 0
BBX 17 15 1 0
BITMAP
003C00
007E00
1FFF00
3FFF80
7FFF80
73FF80
03FF00
07C000
1F8000
7FC000
FFC000
FFE200
FFFF00
FFFE00
61FC00
ENDCHAR
STARTCHAR 00E7
ENCODING 231
SWIDTH 468 0
DWIDTH 13 0
BBX 11 17 1 -4
BITMAP
07C0
0FE0
3FE0
7C00
7000
F000
F000
F000
F800
F800
7FC0
7F80
1F00
0E00
0600
1E00
0C00
ENDCHAR
STARTCHAR 00E8
ENCODING 232
SWIDTH 468 0
DWIDTH 13 0
BBX 12 22 1 0
BITMAP
0C00
0E00
0E00
0F00
0700
0380
0100
0780
1FC0
3FE0
3FF0
7FF0
7FF0
7FE0
F800
F000
F000
7800
7C40
7FC0
3FC0
1F80
ENDCHAR
STARTCHAR 00E9
ENCODING 233
SWIDTH 468 0
DWIDTH 13 0
BBX 12 21 1 0
BITMAP
01C0
0380
0700
0C00
0800
0000
0780
1FC0
3FE0
3FF0
7FF0
7FF0
7FE0
F800
F000
F000
7800
7C40
7FC0
3FC0
1F80
ENDCHAR
STARTCHAR 00EA
ENCODING 234
SWIDTH 468 0
DWIDTH 13 0
BBX 12 20 1 0
BITMAP
0700
0F80
3FC0
79E0
60E0
0780
1FC0
3FE0
3FF0
7FF0
7FF0
7FE0
F800
F000
F000
7800
7C40
7FC0
3FC0
1F80
ENDCHAR
STARTCHAR 00EB
ENCODING 235
SWIDTH 468 0
DWIDTH 13 0
BBX 12 21 1 0
BITMAP
11E0
39E0
79E0
79C0
71C0
0080
0780
1FC0
3FE0
3FF0
7FF0
7FF0
7FE0
F800
F000
F000
7800
7C40
7FC0
3FC0
1F80
ENDCHAR
STARTCHAR 00EC
ENCODING 236
SWIDTH 288 0
DWIDTH 8 0
BBX 6 22 1 0
BITMAP
E0
E0
F0
70
38
18
08
30
78
F8
F8
78
78
38
38
38
70
78
78
FC
FC
78
ENDCHAR
STARTCHAR 00ED
ENCODING 237
SWIDTH 288 0
DWIDTH 8 0
BBX 6 21 1 0
BITMAP
0C
1C
38
60
C0
00
30
78
F8
F8
78
78
38
38
38
70
78
78
FC
FC
78
ENDCHAR
STARTCHAR 00EE
ENCODING 238
SWIDTH 288 0
DWIDTH 8 0
BBX 10 20 -1 0
BITMAP
0E00
3F00
7F80
F380
C1C0
0C00
1E00
3E00
3E00
1E00
1E00
0E00
0E00
0E00
1C00
1E00
1E00
3F00
3F00
1E00
ENDCHAR
STARTCHAR 00EF
ENCODING 239
SWIDTH 288 0
DWIDTH 8 0
BBX 11 22 -1 0
BITMAP
0080
31C0
79E0
79C0
F1C0
71C0
0100
0C00
1E00
3E00
3E00
1E00
1E00
0E00
0E00
0E00
1C00
1E00
1E00
3F00
3F00
1E00
ENDCHAR
STARTCHAR 00F1
ENCODING 241
SWIDTH 540 0
DWIDTH 15 0
BBX 13 23 1 0
BITMAP
0020
0070
1FF0
3FF0
7FE0
7FC0
7980
3000
0000
0000
3FE0
7FF0
FFF0
78F8
7878
7878
7078
7078
7038
7878
7878
FCF8
7870
ENDCHAR
STARTCHAR 00F2
ENCODING 242
SWIDTH 576 0
DWIDTH 16 0
BBX 14 22 1 0
BITMAP
0E00
0700
0700
0380
0180
0080
0000
0380
0FE0
1FF0
38F8
7878
703C
701C
701C
F01C
F01C
F03C
7838
7C70
3FC0
0F00
ENDCHAR
STARTCHAR 00F3
ENCODING 243
SWIDTH 576 0
DWIDTH 16 0
BBX 14 21 1 0
BITMAP
00E0
01C0
0380
0700
0600
0000
0380
0FE0
1FF0
38F8
7878
703C
701C
701C
F01C
F01C
F03C
7838
7C70
3FC0
0F00
ENDCHAR
STARTCHAR 00F4
ENCODING 244
SWIDTH 576 0
DWIDTH 16 0
BBX 14 20 1 0
BITMAP
0380
07E0
0FE0
1CF0
1830
0380
0FE0
1FF0
38F8
7878
703C
701C
701C
F01C
F01C
F03C
7838
7C70
3FC0
0F00
ENDCHAR
STARTCHAR 00F5
ENCODING 245
SWIDTH 576 0
DWIDTH 16 0
BBX 14 23 1 0
BITMAP
0020
0070
1FF0
3FF0
3FE0
7FC0
7980
3000
0380
0FE0
1FF0
38F8
7878
703C
701C
701C
F01C
F01C
F03C
7838
7C70
3FC0
0F00
ENDCHAR
STARTCHAR 00F6
ENCODING 246
SWIDTH 576 0
DWIDTH 16 0
BBX 14 21 1 0
BITMAP
0C70
1E78
1EF0
3CF0
3CE0
0040
0380
0FE0
1FF0
38F8
7878
703C
701C
701C
F01C
F01C
F03C
7838
7C70
3FC0
0F00
ENDCHAR
STARTCHAR 00F9
ENCODING 249
SWIDTH 540 0
DWIDTH 15 0
BBX 13 22 1 0
BITMAP
0800
1C00
1C00
1E00
0E00
0700
0300
0000
0000
F1E0
FBF0
F9F0
F8F8
78F0
7070
7070
7070
7070
70F8
7CF8
3FF8
1FF0
ENDCHAR
STARTCHAR 00FA
ENCODING 250
SWIDTH 540 0
DWIDTH 15 0
BBX 13 21 1 0
BITMAP
0380
0380
0E00
1C00
1800
0000
0000
0000
F1E0
FBF0
F9F0
F8F8
78F0
7070
7070
7070
7070
70F8
7CF8
3FF8
1FF0
ENDCHAR
STARTCHAR 00FB
ENCODING 251
SWIDTH 540 0
DWIDTH 15 0
BBX 13 20 1 0
BITMAP
0700
1F80
3FC0
79E0
60E0
0000
0000
F1E0
FBF0
F9F0
F8F8
78F0
7070
7070
7070
7070
70F8
7CF8
3FF8
1FF0
ENDCHAR
STARTCHAR 00FC
ENCODING 252
SWIDTH 540 0
DWIDTH 15 0
BBX 13 22 1 0
BITMAP
00C0
39E0
79E0
79E0
79C0
71C0
0000
0000
0000
F1E0
FBF0
F9F0
F8F8
78F0
7070
7070
7070
7070
70F8
7CF8
3FF8
1FF0
ENDCHAR
STARTCHAR 00FF
ENCODING 255
SWIDTH 576 0
DWIDTH 16 0
BBX 15 32 1 -9
BITMAP
0060
1C70
1CF0
3EF0
3CE0
38E0
0000
0000
0000
0000
FC3C
FE7E
FC7E
7C7C
7C78
3E70
1FE0
0FC0
0FC0
0780
0780
0780
0700
0700
0600
0600
0C00
1C00
7C00
F800
7000
7000
ENDCHAR
STARTCHAR 0131
ENCODING 305
SWIDTH 288 0
DWIDTH 8 0
BBX 6 15 1 0
BITMAP
30
78
F8
F8
78
78
38
38
38
70
78
78
FC
FC
78
ENDCHAR
STARTCHAR 0152
ENCODING 338
SWIDTH 684 0
DWIDTH 19 0
BBX 17 24 1 -11
BITMAP
0FF800
1FFC00
3FFC00
7C7C00
783C00
783C00
F03C00
F03C00
F03C00
F83C00
7C3C00
7FFC00
3FFC00
0E7C00
007C00
00FF00
07FF80
1FFF80
1FFF00
1C7C00
007C00
007E00
00FF00
00FE00
ENDCHAR
STARTCHAR 0153
ENCODING 339
SWIDTH 828 0
DWIDTH 23 0
BBX 21 13 1 0
BITMAP
0FFFC0
3FFFE0
7FFFF0
F87FF8
F07FF0
F03F80
F03C00
F03C00
F03C00
783FF0
7C7FF0
3FFFE0
1FC7C0
ENDCHAR
STARTCHAR 0178
ENCODING 376
SWIDTH 720 0
DWIDTH 20 0
BBX 19 29 1 0
BITMAP
000E00
039E00
07DE00
079E00
079C00
020800
000000
FE03E0
FF03E0
3E03C0
1E0380
0F0700
0F0700
078E00
078C00
03D800
03F000
01F000
00F000
00E000
00E000
00E000
00F000
00E000
01E000
01F000
03F800
07F800
03F000
ENDCHAR
STARTCHAR 0192
ENCODING 402
SWIDTH 288 0
DWIDTH 8 0
BBX 12 22 1 0
BITMAP
03E0
0FF0
1FF0
3C00
3800
7800
7800
7000
F000
F000
F000
F000
F000
7000
7000
7000
7800
7800
7800
7800
FC00
7C00
ENDCHAR
STARTCHAR 02C6
ENCODING 710
SWIDTH 396 0
DWIDTH 11 0
BBX 9 5 1 17
BITMAP
1C00
3E00
7F00
E780
C380
ENDCHAR
STARTCHAR 02DA
ENCODING 730
SWIDTH 288 0
DWIDTH 8 0
BBX 6 6 1 13
BITMAP
30
F8
CC
DC
FC
70
ENDCHAR
STARTCHAR 03C0
ENCODING 960
SWIDTH 1008 0
DWIDTH 28 0
BBX 26 26 1 -1
BITMAP
7FFFFFC0
EFB37340
ABFDBD40
AFBFDF40
DEEEFF40
F9B7AB40
F7AEB740
EB76FA40
DB2F7FC0
F99E9740
DC83CC40
D3C0F340
D3B05B40
6D7C2C40
7E9B17C0
76FE9B40
796F5F40
7BDFFD40
68EFD240
6B55DAC0
5F5E67C0
ADBDEFC0
DFF2F3C0
DB9FBDC0
EDF5D2C0
FFFFFFC0
ENDCHAR
STARTCHAR 2013
ENCODING 8211
SWIDTH 540 0
DWIDTH 15 0
BBX 13 5 1 6
BITMAP
07F0
7FF8
FFF0
FFF0
7E00
ENDCHAR
STARTCHAR 2014
ENCODING 8212
SWIDTH 864 0
DWIDTH 24 0
BBX 23 5 1 6
BITMAP
00FFF8
7FFFFC
FFFFFE
FFFFF8
3FF800
ENDCHAR
STARTCHAR 2018
ENCODING 8216
SWIDTH 252 0
DWIDTH 7 0
BBX 5 8 1 15
BITMAP
30
78
F0
F0
F0
F8
F8
70
ENDCHAR
STARTCHAR 2019
ENCODING 8217
SWIDTH 252 0
DWIDTH 7 0
BBX 5 8 1 15
BITMAP
60
F0
F8
F8
78
70
F0
E0
ENDCHAR
STARTCHAR 201A
ENCODING 8218
SWIDTH 252 0
DWIDTH 7 0
BBX 5 8 1 -2
BITMAP
E0
F0
F8
F8
78
70
F0
60
ENDCHAR
STARTCHAR 201C
ENCODING 8220
SWIDTH 468 0
DWIDTH 13 0
BBX 10 8 1 15
BITMAP
3080
7BC0
F3C0
F7C0
F780
FBC0
FBC0
71C0
ENDCHAR
STARTCHAR 201D
ENCODING 8221
SWIDTH 432 0
DWIDTH 12 0
BBX 10 8 1 15
BITMAP
6300
F380
FBC0
FBC0
7BC0
73C0
F7C0
E380
ENDCHAR
STARTCHAR 201E
ENCODING 8222
SWIDTH 432 0
DWIDTH 12 0
BBX 10 8 1 -2
BITMAP
E380
F3C0
FBC0
FBC0
7BC0
73C0
F7C0
6300
ENDCHAR
STARTCHAR 2022
ENCODING 8226
SWIDTH 288 0
DWIDTH 8 0
BBX 6 6 1 4
BITMAP
78
FC
FC
FC
7C
38
ENDCHAR
STARTCHAR 2026
ENCODING 8230
SWIDTH 864 0
DWIDTH 24 0
BBX 22 5 1 0
BITMAP
707838
78787C
F87C7C
78787C
703838
ENDCHAR
STARTCHAR 2044
ENCODING 8260
SWIDTH 216 0
DWIDTH 6 0
BBX 15 25 -5 -1
BITMAP
0002
000E
000C
001C
001C
0038
0030
0070
0060
00E0
00C0
01C0
0180
0380
0300
0300
0600
0600
0C00
0C00
1800
3800
3000
7000
E000
ENDCHAR
STARTCHAR 2122
ENCODING 8482
SWIDTH 576 0
DWIDTH 16 0
BBX 15 7 0 16
BITMAP
0004
FEC4
92EC
10FC
10B4
30B4
79FE
ENDCHAR
STARTCHAR 2126
ENCODING 8486
SWIDTH 936 0
DWIDTH 26 0
BBX 24 27 1 -1
BITMAP
7FF440
7FFFFE
7EFFDE
753C7D
FAFBAF
DD7F5A
EFF5E7
FBDFFF
EBEAFF
7BFFFF
DFFFFB
7DFFFF
6DF7FF
7E49FF
7B003F
7FFFDF
FF9F7B
FDFFAF
FF7FEB
7FEBFF
7FFDEF
5DFB6B
FFEFDB
FD7FBF
6FC0FF
FFFFFF
001FFF
ENDCHAR
STARTCHAR 2202
ENCODING 8706
SWIDTH 1044 0
DWIDTH 29 0
BBX 26 26 1 -1
BITMAP
FFFFFFC0
BFFF8FC0
E95F52C0
D9D7D2C0
FCDF73C0
46B5F3C0
7E7FB2C0
7E5E53C0
475A73C0
7F2E73C0
5EBFB5C0
679DD5C0
679FF740
7ECF7740
5F4DD340
7FEBF5C0
6FA734C0
4FA777C0
5FD3B5C0
7BF576C0
5FEAF3C0
7BEB73C0
7AD755C0
696D23C0
D792FCC0
FFFFFFC0
ENDCHAR
STARTCHAR 2206
ENCODING 8710
SWIDTH 720 0
DWIDTH 20 0
BBX 17 22 1 0
BITMAP
07E000
0FF000
1FF800
3E7800
3C3C00
383C00
381800
783800
787E00
F8FF80
F8FF80
F87F80
783C00
783800
783800
783800
783800
783800
783C00
FC3E00
FC3F00
FC1F00
ENDCHAR
STARTCHAR 220F
ENCODING 8719
SWIDTH 1044 0
DWIDTH 29 0
BBX 27 27 1 -2
BITMAP
FFFFFFC0
CFFFFFC0
773F9AC0
6FF67740
5EEF8F40
7DFF66C0
7AF6E3C0
752FB1C0
57BE7940
66D5E940
A62EB940
679F68C0
677FBCC0
67FBFCC0
65D6BCC0
E7FFBCC0
E36CDD40
73FAD940
729F7BC0
69763AC0
7497F740
7E7F6FC0
5BBCBC40
6C7B0FE0
761FCE60
6FFFFFC0
7FF83FC0
ENDCHAR
STARTCHAR 2211
ENCODING 8721
SWIDTH 1044 0
DWIDTH 29 0
BBX 26 26 1 -1
BITMAP
FFFFFFC0
FFFC3B40
F11BCEC0
F9F64D40
F9DF3640
99ED2F40
B93F9DC0
E95C9AC0
D9ED94C0
F9ED39C0
D9DB3940
E96E63C0
A9348CC0
99FFFFC0
B92DF540
A9FE1EC0
D95F9FC0
B9FFD340
B99C5340
B9DF7BC0
B9DE6B40
A98D5740
78CFBEC0
70F5FBC0
E04C17C0
FFFFFFC0
ENDCHAR
STARTCHAR 2219
ENCODING 8729
SWIDTH 180 0
DWIDTH 5 0
BBX 3 3 1 6
BITMAP
40
E0
E0
ENDCHAR
STARTCHAR 221A
ENCODING 8730
SWIDTH 648 0
DWIDTH 18 0
BBX 16 23 1 0
BITMAP
00E0
07F8
0FF8
0E00
1C00
3800
3800
3800
7800
7800
701E
F07C
7078
7078
307C
307E
303E
700F
7007
7843
F8E3
FC7E
703E
ENDCHAR
STARTCHAR 221E
ENCODING 8734
SWIDTH 1044 0
DWIDTH 29 0
BBX 26 27 1 -2
BITMAP
7FFE9BC0
708365C0
7BE5EFC0
4E6DF6C0
5C2A9C40
57B33A40
5D2A5F40
4F39F340
58D922C0
4CDD36C0
776CFDC0
7FBE4FC0
76B67BC0
7CCE56C0
5F715EC0
7D513F40
6EBE96C0
7EB69DC0
5B3F9F40
7D2C57C0
55DBCAC0
6ABE4EC0
FA7725C0
EBECA740
F16F43C0
DE8ABE40
FFFFFFC0
ENDCHAR
STARTCHAR 222B
ENCODING 8747
SWIDTH 1080 0
DWIDTH 30 0
BBX 27 26 1 -1
BITMAP
FFFFFFE0
FFFFFFE0
91A8D1E0
7E572EE0
EFFFFF60
7FF9CF60
D65ABFE0
DDAA77A0
FBFBDD20
6FBABEE0
DADBDDA0
DDFAFCA0
D23AFAA0
6FDAC920
5D59BBE0
5EEAA6A0
F55ABEE0
CFBB6960
FAD9FFA0
FD39E520
6D79DBA0
DE5995E0
7AA9AFE0
7C70CFE0
60FFF960
FFFFFFE0
ENDCHAR
STARTCHAR 2248
ENCODING 8776
SWIDTH 684 0
DWIDTH 19 0
BBX 21 24 1 0
BITMAP
00FFC0
03FFF0
0FFFF8
1FFF38
1E3E00
1C3C00
3C3C00
3C3C00
3C3C00
7C3C00
F87C00
F87C00
783C00
783C00
381C00
381C00
381C00
381C00
381C00
383C00
7C3C00
FE7E00
FE7E00
7E3E00
ENDCHAR
STARTCHAR 2264
ENCODING 8804
SWIDTH 1008 0
DWIDTH 28 0
BBX 26 27 1 -2
BITMAP
7FFFFAC0
FFFFF5C0
70077EC0
E9FCDBC0
F9FB3340
79EE8CC0
791F47C0
E91522C0
F9FEF1C0
E9EFB1C0
F9F7D8C0
D96AF8C0
F9FF68C0
F95E14C0
F9FAF8C0
C9BF98C0
C94F98C0
E94F1940
F9FE9140
695FF1C0
79FEE2C0
799525C0
4964CB40
518B18C0
A0746EC0
7FFF9E40
0007FBC0
ENDCHAR
STARTCHAR 2265
ENCODING 8805
SWIDTH 1044 0
DWIDTH 29 0
BBX 27 27 1 -2
BITMAP
FFFFFFE0
FFFBCDE0
89563660
B8B5ABE0
D97F7760
E9AFBB40
D95E6AC0
A89EB5C0
B9F7FD40
B95F5740
D8B74EC0
F8F3A7C0
E90DFF40
F9F177C0
F9FDFDC0
D97F4740
F8B747C0
49DD3BC0
793D7BC0
79EEBA40
59FCDFC0
59AFB540
797286C0
48FD05C0
7FFFFD40
5FFF7BC0
B080AC80
ENDCHAR
STARTCHAR F001
ENCODING 61441
SWIDTH 648 0
DWIDTH 18 0
BBX 15 23 1 0
BITMAP
00F8
07FC
0F78
1E10
1C00
3C00
3800
3C00
7C00
FE00
FFF8
FFFC
7C3C
381C
3C1C
3C1C
3C1C
3C3C
3C3C
3C3C
7E3C
7E7E
3C1E
ENDCHAR
STARTCHAR F002
ENCODING 61442
SWIDTH 648 0
DWIDTH 18 0
BBX 15 23 1 0
BITMAP
00F8
07FC
0F7C
1E1C
1C1C
3C1C
381C
381C
3C1C
7C1C
FFDC
FFFC
7C1C
381C
3C1C
3C1C
3C1C
3C3C
3C3C
3C3C
7E3C
7E7E
3C1E
ENDCHAR
ENDFONT
